<svg width="18" height="18" viewBox="0 0 18 18" fill="none" xmlns="http://www.w3.org/2000/svg"><path d="M0.561955 3.1788H9.11789C9.37576 4.35255 10.4239 5.23373 11.674 5.23373C12.9241 5.23373 13.9723 4.35259 14.2301 3.1788H17.4206C17.7309 3.1788 17.9826 2.92719 17.9826 2.61685C17.9826 2.30651 17.7309 2.05489 17.4206 2.05489H14.2299C13.9715 0.881742 12.9219 0 11.674 0C10.4255 0 9.37636 0.881602 9.1181 2.05489H0.561955C0.251615 2.05489 0 2.30651 0 2.61685C0 2.92719 0.251615 3.1788 0.561955 3.1788ZM10.1811 2.61832C10.1811 2.61632 10.1811 2.61428 10.1811 2.61228C10.1836 1.79158 10.8533 1.12395 11.674 1.12395C12.4936 1.12395 13.1633 1.79067 13.1668 2.61098L13.167 2.61924C13.1657 3.44134 12.4964 4.10986 11.674 4.10986C10.8519 4.10986 10.1829 3.44201 10.1811 2.6204L10.1811 2.61832ZM17.4206 14.8211H14.2299C13.9715 13.648 12.9219 12.7662 11.674 12.7662C10.4255 12.7662 9.37636 13.6479 9.1181 14.8211H0.561955C0.251615 14.8211 0 15.0727 0 15.3831C0 15.6935 0.251615 15.9451 0.561955 15.9451H9.11789C9.37576 17.1188 10.4239 18 11.674 18C12.9241 18 13.9723 17.1188 14.2301 15.9451H17.4206C17.7309 15.9451 17.9826 15.6935 17.9826 15.3831C17.9826 15.0727 17.7309 14.8211 17.4206 14.8211ZM11.674 16.8761C10.8519 16.8761 10.1829 16.2082 10.1811 15.3866L10.1811 15.3846C10.1811 15.3825 10.1811 15.3805 10.1811 15.3785C10.1836 14.5578 10.8533 13.8902 11.674 13.8902C12.4936 13.8902 13.1633 14.5569 13.1668 15.3772L13.167 15.3854C13.1658 16.2076 12.4965 16.8761 11.674 16.8761ZM17.4206 8.43804H8.86466C8.60679 7.26429 7.55861 6.38314 6.30854 6.38314C5.05847 6.38314 4.01029 7.26429 3.75242 8.43804H0.561955C0.251615 8.43804 0 8.68965 0 8.99999C0 9.31036 0.251615 9.56194 0.561955 9.56194H3.7527C4.01109 10.7351 5.06068 11.6168 6.30854 11.6168C7.55706 11.6168 8.6062 10.7352 8.86445 9.56194H17.4206C17.7309 9.56194 17.9826 9.31036 17.9826 8.99999C17.9826 8.68965 17.7309 8.43804 17.4206 8.43804ZM7.80144 8.99851C7.80144 9.00055 7.80141 9.00255 7.80141 9.00456C7.79895 9.82526 7.12927 10.4929 6.30854 10.4929C5.48896 10.4929 4.81925 9.82617 4.81571 9.00589L4.8156 8.99767C4.81683 8.17546 5.48608 7.50705 6.30854 7.50705C7.13061 7.50705 7.79962 8.17486 7.80148 8.99651L7.80144 8.99851Z" fill="#898989"/></svg>