<svg width="17" height="21" viewBox="0 0 17 21" fill="none" xmlns="http://www.w3.org/2000/svg"><path fill-rule="evenodd" clip-rule="evenodd" d="M16.1123 14.7451L10.4597 20.425C10.248 20.6372 9.96927 20.7434 9.69039 20.7433L9.69039 0.256887C10.2906 0.256887 11.0381 0.482625 11.0381 1.08288L11.0381 16.7637L14.5716 13.2117C14.995 12.7863 15.6831 12.7846 16.1086 13.2081C16.5341 13.6316 16.5356 14.3197 16.1123 14.7451Z" fill="#63AF23"/><path d="M10.4597 20.425L10.6414 20.6063L10.6417 20.6061L10.4597 20.425ZM16.1123 14.7451L16.2942 14.9262L16.2942 14.9262L16.1123 14.7451ZM9.69039 20.7433L9.43369 20.7433L9.43369 20.9999L9.69032 21L9.69039 20.7433ZM9.69039 0.256887L9.69039 0.000187717L9.43369 0.000187706L9.43369 0.256887L9.69039 0.256887ZM11.0381 16.7637L10.7814 16.7637L10.7814 17.3857L11.22 16.9447L11.0381 16.7637ZM14.5716 13.2117L14.3896 13.0306L14.3896 13.0307L14.5716 13.2117ZM16.1086 13.2081L15.9275 13.39L15.9275 13.39L16.1086 13.2081ZM10.6417 20.6061L16.2942 14.9262L15.9303 14.564L10.2778 20.2439L10.6417 20.6061ZM9.69032 21C10.0343 21.0001 10.3794 20.8689 10.6414 20.6063L10.278 20.2437C10.1166 20.4054 9.90424 20.4867 9.69045 20.4866L9.69032 21ZM9.43369 0.256887L9.43369 20.7433L9.94709 20.7433L9.94709 0.256887L9.43369 0.256887ZM11.2948 1.08288C11.2948 0.651361 11.0175 0.37251 10.7045 0.215373C10.396 0.0605261 10.0163 0.000187732 9.69039 0.000187717L9.69039 0.513586C9.96473 0.513586 10.2588 0.566116 10.4742 0.674202C10.6849 0.779999 10.7814 0.914145 10.7814 1.08288L11.2948 1.08288ZM11.2948 16.7637L11.2948 1.08288L10.7814 1.08288L10.7814 16.7637L11.2948 16.7637ZM14.3896 13.0307L10.8561 16.5827L11.22 16.9447L14.7536 13.3927L14.3896 13.0307ZM16.2896 13.0261C15.7637 12.5027 14.9131 12.5047 14.3896 13.0306L14.7535 13.3928C15.0769 13.0678 15.6025 13.0666 15.9275 13.39L16.2896 13.0261ZM16.2942 14.9262C16.8176 14.4003 16.8156 13.5496 16.2896 13.0261L15.9275 13.39C16.2525 13.7135 16.2537 14.2391 15.9303 14.564L16.2942 14.9262Z" fill="#63AF23"/><path fill-rule="evenodd" clip-rule="evenodd" d="M0.573183 6.25488L6.22574 0.574998C6.43746 0.362817 6.71617 0.256633 6.99505 0.256706L6.99505 20.7431C6.39479 20.7431 5.64738 20.5174 5.64738 19.9171L5.64738 4.23631L2.11387 7.78829C1.69044 8.21373 1.00232 8.21536 0.576877 7.79193C0.151383 7.36845 0.149808 6.68032 0.573183 6.25488Z" fill="#63AF23"/><path d="M6.22574 0.574998L6.04402 0.393682L6.04379 0.393923L6.22574 0.574998ZM0.573183 6.25488L0.391232 6.07381L0.391228 6.07381L0.573183 6.25488ZM6.99505 0.256706L7.25175 0.256706L7.25175 7.33802e-05L6.99512 6.75901e-06L6.99505 0.256706ZM6.99505 20.7431L6.99505 20.9998L7.25175 20.9998L7.25175 20.7431L6.99505 20.7431ZM5.64738 19.9171L5.90408 19.9171L5.64738 19.9171ZM5.64738 4.23631L5.90408 4.23631L5.90408 3.61429L5.46539 4.05527L5.64738 4.23631ZM2.11387 7.78829L2.29582 7.96937L2.29586 7.96933L2.11387 7.78829ZM0.576877 7.79193L0.75796 7.60999L0.75796 7.60999L0.576877 7.79193ZM6.04379 0.393923L0.391232 6.07381L0.755133 6.43596L6.40769 0.756073L6.04379 0.393923ZM6.99512 6.75901e-06C6.65113 -8.33752e-05 6.30606 0.131073 6.04402 0.393682L6.40745 0.756314C6.56885 0.594561 6.7812 0.51335 6.99499 0.513405L6.99512 6.75901e-06ZM7.25175 20.7431L7.25175 0.256706L6.73835 0.256706L6.73835 20.7431L7.25175 20.7431ZM5.39068 19.9171C5.39068 20.3486 5.66793 20.6275 5.98095 20.7846C6.28941 20.9395 6.66913 20.9998 6.99505 20.9998L6.99505 20.4864C6.7207 20.4864 6.42659 20.4339 6.21128 20.3258C6.00053 20.22 5.90408 20.0859 5.90408 19.9171L5.39068 19.9171ZM5.39068 4.23631L5.39068 19.9171L5.90408 19.9171L5.90408 4.23631L5.39068 4.23631ZM2.29586 7.96933L5.82937 4.41735L5.46539 4.05527L1.93189 7.60725L2.29586 7.96933ZM0.395794 7.97387C0.921718 8.49731 1.77238 8.4953 2.29582 7.96937L1.93193 7.60721C1.60851 7.93216 1.08292 7.93341 0.75796 7.60999L0.395794 7.97387ZM0.391228 6.07381C-0.132135 6.59973 -0.130191 7.45037 0.395794 7.97387L0.75796 7.60999C0.432957 7.28652 0.43175 6.76092 0.755137 6.43595L0.391228 6.07381Z" fill="#63AF23"/></svg>