<svg width="14" height="20" viewBox="0 0 14 20" fill="none" xmlns="http://www.w3.org/2000/svg"><path d="M6.99999 0C3.14018 0 0 3.14018 0 6.99996C0 11.7901 6.26431 18.8222 6.53102 19.1192C6.78153 19.3983 7.21891 19.3978 7.46897 19.1192C7.73568 18.8222 14 11.7901 14 6.99996C13.9999 3.14018 10.8598 0 6.99999 0ZM6.99999 10.5218C5.05802 10.5218 3.47816 8.94193 3.47816 6.99996C3.47816 5.05799 5.05806 3.47812 6.99999 3.47812C8.94193 3.47812 10.5218 5.05802 10.5218 6.99999C10.5218 8.94196 8.94193 10.5218 6.99999 10.5218Z" fill="#63AF23"/></svg>